<mxfile host="Electron" modified="2024-10-02T07:14:27.571Z" agent="Mozilla/5.0 (Windows NT 10.0; Win64; x64) AppleWebKit/537.36 (KHTML, like Gecko) draw.io/24.4.8 Chrome/124.0.6367.207 Electron/30.0.6 Safari/537.36" etag="DoJa9vFOeQgYESR6THPc" version="24.4.8" type="device">
  <diagram name="Page-1" id="iY3azefqzH4Y8h3HBsLG">
    <mxGraphModel dx="1600" dy="1040" grid="1" gridSize="10" guides="1" tooltips="1" connect="1" arrows="1" fold="1" page="1" pageScale="1" pageWidth="850" pageHeight="1100" math="0" shadow="0">
      <root>
        <mxCell id="0" />
        <mxCell id="1" parent="0" />
        <mxCell id="o_WdUW0LBJT-JkCcLAcq-1" value="" style="rounded=0;whiteSpace=wrap;html=1;" vertex="1" parent="1">
          <mxGeometry x="39" y="34" width="410" height="1027" as="geometry" />
        </mxCell>
        <mxCell id="o_WdUW0LBJT-JkCcLAcq-2" value="" style="rounded=0;whiteSpace=wrap;html=1;" vertex="1" parent="1">
          <mxGeometry x="71" y="54" width="350" height="40" as="geometry" />
        </mxCell>
        <mxCell id="o_WdUW0LBJT-JkCcLAcq-3" value="" style="rounded=0;whiteSpace=wrap;html=1;fillColor=#fff2cc;strokeColor=#d6b656;" vertex="1" parent="1">
          <mxGeometry x="81" y="64" width="70" height="20" as="geometry" />
        </mxCell>
        <mxCell id="o_WdUW0LBJT-JkCcLAcq-5" value="" style="rounded=0;whiteSpace=wrap;html=1;" vertex="1" parent="1">
          <mxGeometry x="241" y="64" width="170" height="20" as="geometry" />
        </mxCell>
        <mxCell id="o_WdUW0LBJT-JkCcLAcq-8" value="" style="rounded=0;whiteSpace=wrap;html=1;" vertex="1" parent="1">
          <mxGeometry x="71" y="94" width="350" height="220" as="geometry" />
        </mxCell>
        <mxCell id="o_WdUW0LBJT-JkCcLAcq-9" value="" style="rounded=0;whiteSpace=wrap;html=1;" vertex="1" parent="1">
          <mxGeometry x="101" y="124" width="170" height="100" as="geometry" />
        </mxCell>
        <mxCell id="o_WdUW0LBJT-JkCcLAcq-10" value="" style="ellipse;whiteSpace=wrap;html=1;aspect=fixed;fillColor=#f8cecc;strokeColor=#b85450;" vertex="1" parent="1">
          <mxGeometry x="301" y="134" width="80" height="80" as="geometry" />
        </mxCell>
        <mxCell id="o_WdUW0LBJT-JkCcLAcq-11" value="" style="rounded=0;whiteSpace=wrap;html=1;" vertex="1" parent="1">
          <mxGeometry x="151" y="264" width="200" height="30" as="geometry" />
        </mxCell>
        <mxCell id="o_WdUW0LBJT-JkCcLAcq-12" value="" style="rounded=0;whiteSpace=wrap;html=1;fillColor=#fff2cc;strokeColor=#d6b656;" vertex="1" parent="1">
          <mxGeometry x="111" y="134" width="80" height="20" as="geometry" />
        </mxCell>
        <mxCell id="o_WdUW0LBJT-JkCcLAcq-15" value="" style="rounded=0;whiteSpace=wrap;html=1;" vertex="1" parent="1">
          <mxGeometry x="111" y="164" width="80" height="20" as="geometry" />
        </mxCell>
        <mxCell id="o_WdUW0LBJT-JkCcLAcq-16" value="" style="rounded=0;whiteSpace=wrap;html=1;" vertex="1" parent="1">
          <mxGeometry x="111" y="194" width="48" height="20" as="geometry" />
        </mxCell>
        <mxCell id="o_WdUW0LBJT-JkCcLAcq-19" value="" style="rounded=0;whiteSpace=wrap;html=1;" vertex="1" parent="1">
          <mxGeometry x="157" y="269" width="40" height="20" as="geometry" />
        </mxCell>
        <mxCell id="o_WdUW0LBJT-JkCcLAcq-20" value="" style="rounded=0;whiteSpace=wrap;html=1;fillColor=#f8cecc;strokeColor=#b85450;" vertex="1" parent="1">
          <mxGeometry x="225" y="269" width="120" height="20" as="geometry" />
        </mxCell>
        <mxCell id="o_WdUW0LBJT-JkCcLAcq-21" value="" style="rounded=0;whiteSpace=wrap;html=1;" vertex="1" parent="1">
          <mxGeometry x="71" y="334" width="350" height="257" as="geometry" />
        </mxCell>
        <mxCell id="o_WdUW0LBJT-JkCcLAcq-23" value="" style="rounded=0;whiteSpace=wrap;html=1;" vertex="1" parent="1">
          <mxGeometry x="226" y="358" width="170" height="123" as="geometry" />
        </mxCell>
        <mxCell id="o_WdUW0LBJT-JkCcLAcq-24" value="" style="rounded=0;whiteSpace=wrap;html=1;fillColor=#f8cecc;strokeColor=#b85450;" vertex="1" parent="1">
          <mxGeometry x="101" y="358" width="100" height="123" as="geometry" />
        </mxCell>
        <mxCell id="o_WdUW0LBJT-JkCcLAcq-25" value="" style="rounded=0;whiteSpace=wrap;html=1;" vertex="1" parent="1">
          <mxGeometry x="237" y="402" width="140" height="18.5" as="geometry" />
        </mxCell>
        <mxCell id="o_WdUW0LBJT-JkCcLAcq-26" value="" style="rounded=0;whiteSpace=wrap;html=1;fillColor=#fff2cc;strokeColor=#d6b656;" vertex="1" parent="1">
          <mxGeometry x="238" y="372" width="90" height="18.5" as="geometry" />
        </mxCell>
        <mxCell id="o_WdUW0LBJT-JkCcLAcq-30" value="" style="rounded=0;whiteSpace=wrap;html=1;" vertex="1" parent="1">
          <mxGeometry x="237" y="430" width="150" height="39" as="geometry" />
        </mxCell>
        <mxCell id="o_WdUW0LBJT-JkCcLAcq-31" value="" style="rounded=0;whiteSpace=wrap;html=1;" vertex="1" parent="1">
          <mxGeometry x="103" y="501" width="98" height="60" as="geometry" />
        </mxCell>
        <mxCell id="o_WdUW0LBJT-JkCcLAcq-32" value="" style="rounded=0;whiteSpace=wrap;html=1;" vertex="1" parent="1">
          <mxGeometry x="225" y="501" width="168" height="60" as="geometry" />
        </mxCell>
        <mxCell id="o_WdUW0LBJT-JkCcLAcq-36" value="" style="rounded=0;whiteSpace=wrap;html=1;" vertex="1" parent="1">
          <mxGeometry x="71" y="614" width="348" height="240" as="geometry" />
        </mxCell>
        <mxCell id="o_WdUW0LBJT-JkCcLAcq-37" value="" style="rounded=0;whiteSpace=wrap;html=1;fillColor=#fff2cc;strokeColor=#d6b656;" vertex="1" parent="1">
          <mxGeometry x="109" y="632" width="88" height="20" as="geometry" />
        </mxCell>
        <mxCell id="o_WdUW0LBJT-JkCcLAcq-38" value="" style="rounded=0;whiteSpace=wrap;html=1;" vertex="1" parent="1">
          <mxGeometry x="109" y="667" width="178" height="20" as="geometry" />
        </mxCell>
        <mxCell id="o_WdUW0LBJT-JkCcLAcq-40" value="" style="rounded=0;whiteSpace=wrap;html=1;" vertex="1" parent="1">
          <mxGeometry x="252" y="704" width="147" height="117" as="geometry" />
        </mxCell>
        <mxCell id="o_WdUW0LBJT-JkCcLAcq-41" value="" style="rounded=0;whiteSpace=wrap;html=1;fillColor=#f8cecc;strokeColor=#b85450;" vertex="1" parent="1">
          <mxGeometry x="108" y="704" width="121" height="117" as="geometry" />
        </mxCell>
        <mxCell id="o_WdUW0LBJT-JkCcLAcq-42" value="" style="rounded=0;whiteSpace=wrap;html=1;fillColor=#fff2cc;strokeColor=#d6b656;" vertex="1" parent="1">
          <mxGeometry x="260" y="711" width="130" height="20" as="geometry" />
        </mxCell>
        <mxCell id="o_WdUW0LBJT-JkCcLAcq-43" value="" style="rounded=0;whiteSpace=wrap;html=1;" vertex="1" parent="1">
          <mxGeometry x="261" y="739.5" width="128" height="40" as="geometry" />
        </mxCell>
        <mxCell id="o_WdUW0LBJT-JkCcLAcq-45" value="" style="rounded=0;whiteSpace=wrap;html=1;" vertex="1" parent="1">
          <mxGeometry x="308.5" y="791" width="33" height="20" as="geometry" />
        </mxCell>
        <mxCell id="o_WdUW0LBJT-JkCcLAcq-47" value="" style="rounded=0;whiteSpace=wrap;html=1;" vertex="1" parent="1">
          <mxGeometry x="262" y="791" width="33" height="20" as="geometry" />
        </mxCell>
        <mxCell id="o_WdUW0LBJT-JkCcLAcq-49" value="" style="rounded=0;whiteSpace=wrap;html=1;" vertex="1" parent="1">
          <mxGeometry x="356" y="791" width="33" height="20" as="geometry" />
        </mxCell>
        <mxCell id="o_WdUW0LBJT-JkCcLAcq-50" value="" style="rounded=0;whiteSpace=wrap;html=1;" vertex="1" parent="1">
          <mxGeometry x="71" y="881" width="348" height="100" as="geometry" />
        </mxCell>
        <mxCell id="o_WdUW0LBJT-JkCcLAcq-51" value="" style="rounded=0;whiteSpace=wrap;html=1;fillColor=#fff2cc;strokeColor=#d6b656;" vertex="1" parent="1">
          <mxGeometry x="108" y="891" width="51" height="20" as="geometry" />
        </mxCell>
        <mxCell id="o_WdUW0LBJT-JkCcLAcq-52" value="" style="rounded=0;whiteSpace=wrap;html=1;" vertex="1" parent="1">
          <mxGeometry x="109" y="921" width="101" height="20" as="geometry" />
        </mxCell>
        <mxCell id="o_WdUW0LBJT-JkCcLAcq-53" value="" style="rounded=0;whiteSpace=wrap;html=1;" vertex="1" parent="1">
          <mxGeometry x="224.5" y="951" width="101" height="20" as="geometry" />
        </mxCell>
        <mxCell id="o_WdUW0LBJT-JkCcLAcq-54" value="" style="rounded=0;whiteSpace=wrap;html=1;" vertex="1" parent="1">
          <mxGeometry x="108" y="951" width="101" height="20" as="geometry" />
        </mxCell>
        <mxCell id="o_WdUW0LBJT-JkCcLAcq-55" value="" style="rounded=0;whiteSpace=wrap;html=1;" vertex="1" parent="1">
          <mxGeometry x="109" y="951" width="30" height="20" as="geometry" />
        </mxCell>
        <mxCell id="o_WdUW0LBJT-JkCcLAcq-56" value="" style="rounded=0;whiteSpace=wrap;html=1;" vertex="1" parent="1">
          <mxGeometry x="225" y="951" width="30" height="20" as="geometry" />
        </mxCell>
        <mxCell id="o_WdUW0LBJT-JkCcLAcq-57" value="" style="rounded=0;whiteSpace=wrap;html=1;" vertex="1" parent="1">
          <mxGeometry x="71" y="1001" width="348" height="40" as="geometry" />
        </mxCell>
        <mxCell id="o_WdUW0LBJT-JkCcLAcq-58" value="" style="rounded=0;whiteSpace=wrap;html=1;" vertex="1" parent="1">
          <mxGeometry x="81" y="1011" width="108" height="20" as="geometry" />
        </mxCell>
        <mxCell id="o_WdUW0LBJT-JkCcLAcq-59" value="" style="rounded=0;whiteSpace=wrap;html=1;" vertex="1" parent="1">
          <mxGeometry x="379" y="1011" width="24" height="20" as="geometry" />
        </mxCell>
        <mxCell id="o_WdUW0LBJT-JkCcLAcq-60" value="" style="rounded=0;whiteSpace=wrap;html=1;" vertex="1" parent="1">
          <mxGeometry x="351" y="1011" width="24" height="20" as="geometry" />
        </mxCell>
        <mxCell id="o_WdUW0LBJT-JkCcLAcq-62" value="" style="rounded=0;whiteSpace=wrap;html=1;" vertex="1" parent="1">
          <mxGeometry x="111" y="194" width="24" height="20" as="geometry" />
        </mxCell>
        <mxCell id="o_WdUW0LBJT-JkCcLAcq-63" value="" style="rounded=0;whiteSpace=wrap;html=1;" vertex="1" parent="1">
          <mxGeometry x="135" y="194" width="24" height="20" as="geometry" />
        </mxCell>
        <mxCell id="o_WdUW0LBJT-JkCcLAcq-64" value="" style="rounded=0;whiteSpace=wrap;html=1;" vertex="1" parent="1">
          <mxGeometry x="570" y="30" width="210" height="1000" as="geometry" />
        </mxCell>
        <mxCell id="o_WdUW0LBJT-JkCcLAcq-155" value="" style="rounded=0;whiteSpace=wrap;html=1;" vertex="1" parent="1">
          <mxGeometry x="577" y="38" width="190" height="22" as="geometry" />
        </mxCell>
        <mxCell id="o_WdUW0LBJT-JkCcLAcq-157" value="" style="ellipse;whiteSpace=wrap;html=1;aspect=fixed;fillColor=#f8cecc;strokeColor=#b85450;" vertex="1" parent="1">
          <mxGeometry x="624" y="74" width="90" height="90" as="geometry" />
        </mxCell>
        <mxCell id="o_WdUW0LBJT-JkCcLAcq-158" value="" style="rounded=0;whiteSpace=wrap;html=1;fillColor=#fff2cc;strokeColor=#d6b656;" vertex="1" parent="1">
          <mxGeometry x="580" y="41" width="55" height="16" as="geometry" />
        </mxCell>
        <mxCell id="o_WdUW0LBJT-JkCcLAcq-159" value="" style="rounded=0;whiteSpace=wrap;html=1;" vertex="1" parent="1">
          <mxGeometry x="738" y="41" width="26" height="16" as="geometry" />
        </mxCell>
        <mxCell id="o_WdUW0LBJT-JkCcLAcq-160" value="" style="rounded=0;whiteSpace=wrap;html=1;" vertex="1" parent="1">
          <mxGeometry x="590" y="174" width="160" height="76" as="geometry" />
        </mxCell>
        <mxCell id="o_WdUW0LBJT-JkCcLAcq-161" value="" style="rounded=0;whiteSpace=wrap;html=1;fillColor=#fff2cc;strokeColor=#d6b656;" vertex="1" parent="1">
          <mxGeometry x="610" y="182" width="120" height="18" as="geometry" />
        </mxCell>
        <mxCell id="o_WdUW0LBJT-JkCcLAcq-162" value="" style="rounded=0;whiteSpace=wrap;html=1;" vertex="1" parent="1">
          <mxGeometry x="610" y="203" width="120" height="18" as="geometry" />
        </mxCell>
        <mxCell id="o_WdUW0LBJT-JkCcLAcq-163" value="" style="rounded=0;whiteSpace=wrap;html=1;" vertex="1" parent="1">
          <mxGeometry x="640" y="224" width="60" height="18" as="geometry" />
        </mxCell>
        <mxCell id="o_WdUW0LBJT-JkCcLAcq-166" value="" style="rounded=0;whiteSpace=wrap;html=1;" vertex="1" parent="1">
          <mxGeometry x="594" y="269" width="156" height="61" as="geometry" />
        </mxCell>
        <mxCell id="o_WdUW0LBJT-JkCcLAcq-167" value="" style="rounded=0;whiteSpace=wrap;html=1;fillColor=#f8cecc;strokeColor=#b85450;" vertex="1" parent="1">
          <mxGeometry x="616" y="304" width="120" height="18" as="geometry" />
        </mxCell>
        <mxCell id="o_WdUW0LBJT-JkCcLAcq-170" value="" style="rounded=0;whiteSpace=wrap;html=1;" vertex="1" parent="1">
          <mxGeometry x="641" y="279" width="60" height="18" as="geometry" />
        </mxCell>
        <mxCell id="o_WdUW0LBJT-JkCcLAcq-172" value="" style="rounded=0;whiteSpace=wrap;html=1;fillColor=#f8cecc;strokeColor=#b85450;" vertex="1" parent="1">
          <mxGeometry x="636" y="351.25" width="80" height="60" as="geometry" />
        </mxCell>
        <mxCell id="o_WdUW0LBJT-JkCcLAcq-173" value="" style="rounded=0;whiteSpace=wrap;html=1;fillColor=#fff2cc;strokeColor=#d6b656;" vertex="1" parent="1">
          <mxGeometry x="646" y="420.5" width="60" height="18" as="geometry" />
        </mxCell>
        <mxCell id="o_WdUW0LBJT-JkCcLAcq-176" value="" style="rounded=0;whiteSpace=wrap;html=1;" vertex="1" parent="1">
          <mxGeometry x="624" y="451" width="106" height="18" as="geometry" />
        </mxCell>
        <mxCell id="o_WdUW0LBJT-JkCcLAcq-177" value="" style="rounded=0;whiteSpace=wrap;html=1;" vertex="1" parent="1">
          <mxGeometry x="624" y="481" width="106" height="47" as="geometry" />
        </mxCell>
        <mxCell id="o_WdUW0LBJT-JkCcLAcq-178" value="" style="rounded=0;whiteSpace=wrap;html=1;" vertex="1" parent="1">
          <mxGeometry x="617" y="632" width="104" height="60" as="geometry" />
        </mxCell>
        <mxCell id="o_WdUW0LBJT-JkCcLAcq-179" value="" style="rounded=0;whiteSpace=wrap;html=1;" vertex="1" parent="1">
          <mxGeometry x="635" y="561" width="76" height="60" as="geometry" />
        </mxCell>
        <mxCell id="o_WdUW0LBJT-JkCcLAcq-180" value="" style="rounded=0;whiteSpace=wrap;html=1;fillColor=#fff2cc;strokeColor=#d6b656;" vertex="1" parent="1">
          <mxGeometry x="641" y="721.5" width="60" height="18" as="geometry" />
        </mxCell>
        <mxCell id="o_WdUW0LBJT-JkCcLAcq-183" value="" style="rounded=0;whiteSpace=wrap;html=1;" vertex="1" parent="1">
          <mxGeometry x="622" y="753.5" width="106" height="18" as="geometry" />
        </mxCell>
        <mxCell id="o_WdUW0LBJT-JkCcLAcq-184" value="" style="rounded=0;whiteSpace=wrap;html=1;fillColor=#f8cecc;strokeColor=#b85450;" vertex="1" parent="1">
          <mxGeometry x="637" y="783" width="70" height="36" as="geometry" />
        </mxCell>
        <mxCell id="o_WdUW0LBJT-JkCcLAcq-185" value="" style="rounded=0;whiteSpace=wrap;html=1;" vertex="1" parent="1">
          <mxGeometry x="637.5" y="831" width="69" height="60" as="geometry" />
        </mxCell>
        <mxCell id="o_WdUW0LBJT-JkCcLAcq-186" value="" style="rounded=0;whiteSpace=wrap;html=1;fillColor=#fff2cc;strokeColor=#d6b656;" vertex="1" parent="1">
          <mxGeometry x="636" y="911" width="69" height="10" as="geometry" />
        </mxCell>
        <mxCell id="o_WdUW0LBJT-JkCcLAcq-187" value="" style="rounded=0;whiteSpace=wrap;html=1;" vertex="1" parent="1">
          <mxGeometry x="638" y="931" width="69" height="19" as="geometry" />
        </mxCell>
        <mxCell id="o_WdUW0LBJT-JkCcLAcq-188" value="" style="rounded=0;whiteSpace=wrap;html=1;" vertex="1" parent="1">
          <mxGeometry x="600" y="990" width="160" height="20" as="geometry" />
        </mxCell>
        <mxCell id="o_WdUW0LBJT-JkCcLAcq-192" value="Image" style="whiteSpace=wrap;html=1;aspect=fixed;fillColor=#f8cecc;strokeColor=#b85450;" vertex="1" parent="1">
          <mxGeometry x="470" y="41" width="80" height="80" as="geometry" />
        </mxCell>
        <mxCell id="o_WdUW0LBJT-JkCcLAcq-193" value="Heading" style="whiteSpace=wrap;html=1;aspect=fixed;fillColor=#fff2cc;strokeColor=#d6b656;" vertex="1" parent="1">
          <mxGeometry x="470" y="144" width="80" height="80" as="geometry" />
        </mxCell>
        <mxCell id="o_WdUW0LBJT-JkCcLAcq-195" value="Text" style="whiteSpace=wrap;html=1;aspect=fixed;" vertex="1" parent="1">
          <mxGeometry x="470" y="248" width="80" height="80" as="geometry" />
        </mxCell>
        <mxCell id="o_WdUW0LBJT-JkCcLAcq-197" value="" style="rounded=0;whiteSpace=wrap;html=1;" vertex="1" parent="1">
          <mxGeometry x="639" y="961" width="69" height="16" as="geometry" />
        </mxCell>
      </root>
    </mxGraphModel>
  </diagram>
</mxfile>
